<?xml version="1.0" standalone="no"?>
<!DOCTYPE svg PUBLIC "-//W3C//DTD SVG 20010904//EN"
 "http://www.w3.org/TR/2001/REC-SVG-20010904/DTD/svg10.dtd">
<svg version="1.0" xmlns="http://www.w3.org/2000/svg"
 width="512.000000pt" height="512.000000pt" viewBox="0 0 512.000000 512.000000"
 preserveAspectRatio="xMidYMid meet">
<metadata>
Created by potrace 1.11, written by Peter Selinger 2001-2013
</metadata>
<g transform="translate(0.000000,512.000000) scale(0.100000,-0.100000)"
fill="#000000" stroke="none">
<path d="M2325 5109 c-337 -34 -649 -126 -941 -278 -258 -134 -450 -277 -659
-492 -205 -210 -340 -404 -465 -663 -163 -337 -243 -661 -257 -1036 -21 -603
182 -1212 564 -1685 232 -288 518 -517 854 -684 249 -124 502 -204 784 -247
169 -26 541 -26 710 0 465 71 899 260 1250 543 288 232 517 518 684 854 193
388 283 796 268 1219 -20 539 -195 1036 -519 1468 -89 119 -302 339 -423 437
-199 162 -499 333 -736 419 -139 51 -348 104 -501 127 -154 23 -474 33 -613
18z m-1033 -1334 c286 -24 440 -49 656 -106 215 -56 437 -153 560 -244 l57
-41 50 38 c66 50 238 138 355 181 161 60 384 114 586 142 150 21 436 45 541
45 l93 0 0 -1223 0 -1224 -207 -6 c-566 -17 -1051 -140 -1341 -340 l-78 -53
-67 47 c-286 201 -788 330 -1349 346 l-208 6 0 1224 0 1223 88 0 c48 0 167 -7
264 -15z"/>
<path d="M1350 2558 l0 -818 33 0 c55 0 306 -39 432 -66 144 -31 352 -98 459
-148 44 -20 80 -36 82 -36 2 0 4 367 4 815 l0 816 -77 35 c-217 100 -536 179
-850 212 l-83 8 0 -818z"/>
<path d="M3650 3363 c-273 -31 -557 -102 -765 -191 l-110 -47 -3 -817 c-1
-450 0 -818 2 -818 2 0 41 17 87 39 212 98 547 180 847 207 l72 7 0 818 c0
451 -1 819 -2 818 -2 -1 -59 -8 -128 -16z"/>
</g>
</svg>
